<?xml version="1.0" standalone="no"?>
<!DOCTYPE svg PUBLIC "-//W3C//DTD SVG 20010904//EN"
 "http://www.w3.org/TR/2001/REC-SVG-20010904/DTD/svg10.dtd">
<svg version="1.0" xmlns="http://www.w3.org/2000/svg"
 width="640.000000pt" height="640.000000pt" viewBox="0 0 640.000000 640.000000"
 preserveAspectRatio="xMidYMid meet">
<metadata>
Created by potrace 1.14, written by Peter Selinger 2001-2017
</metadata>
<g transform="translate(0.000000,640.000000) scale(0.100000,-0.100000)"
fill="#000000" stroke="none">
<path d="M2850 6185 c-888 -108 -1664 -586 -2157 -1328 -260 -391 -422 -837
-478 -1313 -20 -169 -20 -519 0 -688 80 -679 380 -1301 860 -1781 489 -489
1137 -797 1824 -865 133 -13 469 -13 602 0 1163 116 2158 903 2540 2010 43
125 88 295 114 430 61 327 61 773 0 1100 -213 1129 -1039 2032 -2145 2345
-125 35 -319 73 -466 90 -157 18 -543 18 -694 0z m516 -1475 c329 -27 572
-125 766 -309 99 -93 195 -229 254 -355 40 -88 84 -248 84 -307 l0 -39 -299 0
-299 0 -23 68 c-51 156 -134 275 -239 342 -28 18 -85 44 -128 58 -69 23 -93
26 -227 26 -132 1 -158 -2 -217 -22 -217 -75 -375 -271 -448 -556 -74 -292
-61 -707 31 -956 52 -141 162 -281 283 -360 98 -65 199 -93 336 -93 313 -2
500 140 605 461 l27 82 300 0 c280 0 299 -1 294 -17 -2 -10 -10 -45 -17 -78
-17 -88 -75 -249 -122 -340 -54 -104 -170 -258 -250 -331 -275 -252 -656 -348
-1097 -278 -115 19 -279 72 -371 120 -275 145 -492 412 -592 731 -63 199 -87
373 -87 633 0 215 18 380 60 546 105 418 376 746 734 889 197 79 391 105 642
85z"/>
</g>
</svg>
